<svg width="1366" height="106" viewBox="0 0 1366 106" fill="none" xmlns="http://www.w3.org/2000/svg">
<path d="M0 91.0016L56.9167 80.881C113.833 71.1388 227.667 50.3301 341.5 55.7214C455.333 60.7344 569.167 91.0016 683 101.122C796.833 110.865 910.667 101.406 1024.5 91.0016C1138.33 80.5973 1252.17 71.1388 1309.08 65.7474L1366 60.7344V0.199951H1309.08C1252.17 0.199951 1138.33 0.199951 1024.5 0.199951C910.667 0.199951 796.833 0.199951 683 0.199951C569.167 0.199951 455.333 0.199951 341.5 0.199951C227.667 0.199951 113.833 0.199951 56.9167 0.199951H0V91.0016Z" fill="#2E3440"/>
</svg>
